# xmcd
#
# Track frame offsets: 
#        150
#        19597
#        33867
#        48697
#        64412
#        81012
#
# Disc length: 1271 seconds
#
# Revision: 3
# Processed by: cddbd v1.4PL0 Copyright (c) Steve Scherf et al.
# Submitted via: ExactAudioCopy v0.90b4
#
DISCID=4604f506
DTITLE=Reba McEntire - Forever Reba (Limited Edition Collectors CD)
DYEAR=2001
DGENRE=Country
TTITLE0=For My Broken Heart
TTITLE1=It's Your Call
TTITLE2=They Asked About You
TTITLE3=And Still
TTITLE4=How Was I To Know
TTITLE5=All This Time
EXTD=\nYEAR: 2001  ID3G:   2
EXTT0=
EXTT1=
EXTT2=
EXTT3=
EXTT4=
EXTT5=
PLAYORDER=
